<svg xmlns="http://www.w3.org/2000/svg" viewBox="0 0 118.88 163.17"><defs><style>.cls-1,.cls-4,.cls-6{fill:#292728;}.cls-1{opacity:0.15;}.cls-2{fill:#f4f4f5;}.cls-3{fill:#371b14;}.cls-5{fill:#6fccdd;}.cls-6{opacity:0.2;}</style></defs><title>Asset 31</title><g id="Layer_2" data-name="Layer 2"><g id="Layer_1-2" data-name="Layer 1"><path class="cls-1" d="M25.34,10.1,28.2,56.43s25.58,8.23,53.48,3.4c2.35-.41,2-4.83,2-4.83L64.33,56.79,41.43,53.92l-6.62-1.43L30.52,4.74l-2.86-.36Z"/><path class="cls-2" d="M106.06,7.35A17.28,17.28,0,0,1,107,4.8c-10.05-2.52-10.73-2.4-15.06.14-.2.28-1.7,1-2.18,2.54a1.13,1.13,0,0,1,0,.16c-1.94,18.57-4.35,51.81-4.32,51.9a1.46,1.46,0,0,1-1.16,1.7C72.47,63.49,61.5,65,50.56,65a107.6,107.6,0,0,1-28.31-3.69l-.2,0H22a1.46,1.46,0,0,1-1.37-1.55c1-15.89,4.46-52.69,4.51-52.88A8.16,8.16,0,0,1,26,4.79C16,2.28,15.27,2.4,11,4.94c-.2.28-1.74,1.05-2.22,2.65a1.13,1.13,0,0,1,0,.16c-12.24,116.84-1.9,143.1-.51,146,28,8.74,39.47,8.76,97.12,0C102.43,146.2,94.78,114.92,106.06,7.35Z"/><path class="cls-2" d="M108.94,7.56s0,0,0,.08c-11.72,111.9-2.73,140.72-.73,145.5a3.94,3.94,0,0,0,2.15-1.52l0,0,0,0h0c.69-1.24,12.31-24.9-.37-146A4.74,4.74,0,0,0,108.94,7.56Z"/><path class="cls-2" d="M23.6,58.62c20.13,5.28,37.58,4,58.88,0,0-.74.1-1.48.14-2.22a151.62,151.62,0,0,1-20,1.46A109,109,0,0,1,34,54.13c-.77-.21-.93-2-.86-2.12-1-14.29-2.34-29.93-4.08-46.51h0a4.83,4.83,0,0,0-1.14,2.09,1.13,1.13,0,0,1,0,.16C26.05,26,24.59,43.12,23.6,58.62Z"/><polygon class="cls-3" points="8.25 153.74 8.25 153.74 8.25 153.74 8.25 153.74"/><path class="cls-1" d="M108.33,10.1s7.69,110.18.36,143.45c-.58,2.64,5.9-7.69,5.9-7.69l2.86-38.28-3-76.73-3-26.29-3,.36Z"/><path class="cls-4" d="M113,5.35c0-.24-1.44-2.73-2.71-2.75C96.7-.81,96.14-.93,90,2.69c-.08,0-.13.13-.2.19a6,6,0,0,0-2.91,4c-.06.21-3.1,32.36-4.07,46.54-18,2.44-32.12,1.89-46.75-1.81-1-14.26-4.06-46.78-4.13-47a2.82,2.82,0,0,0-2.66-2C15.72-.82,15.16-.94,9,2.68a1.36,1.36,0,0,0-.22.2c-1.27.58-3,4.55-3,4.56-13.53,129.07.61,148.69.71,148.76,1.69,1,20.2,7,39.13,7,20.16,0,62-6.87,62.05-6.87s3.65-1.4,4.81-2.76l0,0c.14-.15,13.83-19.37.36-148.15ZM29.09,5.5h0C30.83,22.07,32.21,37.72,33.18,52c-.06.11.09,1.91.86,2.12a109,109,0,0,0,28.55,3.72,151.62,151.62,0,0,0,20-1.46c0,.74-.1,1.49-.14,2.22-21.3,4-38.76,5.29-58.88,0,1-15.5,2.46-32.6,4.37-50.87a1.13,1.13,0,0,0,0-.16A4.83,4.83,0,0,1,29.09,5.5ZM8.25,153.74h0c-1.4-2.89-11.74-29.16.51-146a1.13,1.13,0,0,0,0-.16C9.22,6,10.75,5.22,11,4.94,15.27,2.4,16,2.28,26,4.79a8.16,8.16,0,0,0-.9,2.09c-.05.18-3.52,37-4.51,52.88A1.46,1.46,0,0,0,22,61.31h.09l.2,0A107.6,107.6,0,0,0,50.56,65c10.94,0,21.9-1.49,33.73-3.74a1.46,1.46,0,0,0,1.16-1.7c0-.08,2.38-33.33,4.32-51.9a1.13,1.13,0,0,0,0-.16c.48-1.5,2-2.26,2.18-2.54,4.32-2.54,5-2.66,15.06-.14a17.28,17.28,0,0,0-.94,2.55c-11.27,107.57-3.63,138.86-.69,146.38C47.72,162.5,36.24,162.48,8.25,153.74Zm102.17-2.17h0l0,0,0,0a3.94,3.94,0,0,1-2.15,1.52c-2-4.78-11-33.6.73-145.5,0,0,0-.05,0-.08a4.74,4.74,0,0,1,1.11-2C122.73,126.67,111.11,150.32,110.42,151.57Z"/><path class="cls-5" d="M73.94,120.14a8.16,8.16,0,0,1-.3,1.63c-1,3.32-4.11,6.75-8.16,8.95a17.78,17.78,0,0,1-9.24,2.33,9.28,9.28,0,0,1-4-1.08l-.11-.06a4.36,4.36,0,0,0,.44,1.24l.07.11h0c.94,1.6,2.86,2.57,5.45,2.71a17.4,17.4,0,0,0,9-2.3c4-2.16,7-5.45,7.94-8.6a5.28,5.28,0,0,0-.15-3.83c0-.06-.05-.13-.09-.19A4.2,4.2,0,0,0,74,120S73.95,120.09,73.94,120.14Z"/><path class="cls-5" d="M50,125.63a5.31,5.31,0,0,0,.74.45,6.17,6.17,0,0,0,.85.34l.26.07.56.14.28,0,.57.08.31,0a16.12,16.12,0,0,0,8.59-2.12,16.76,16.76,0,0,0,6.54-6.08l.16-.27c.09-.18.19-.36.26-.54s.07-.18.11-.27.14-.36.2-.54.06-.17.09-.25v0a7.16,7.16,0,0,0,.2-.92,5.46,5.46,0,0,0,.05-.86,4.25,4.25,0,0,0-.11-.92,3.65,3.65,0,0,0-.37-1,3.06,3.06,0,0,0-.28-.43,9,9,0,0,1-.5,1.12,8.61,8.61,0,0,1-.43.75c-.16.25-.33.5-.51.73a15.26,15.26,0,0,1-1.49,1.71l-.35.35c-.25.24-.51.47-.77.69s-.34.3-.51.43c-.38.31-.76.6-1.14.87l-1,.71c-.8.52-1.52.94-2.06,1.23s-1.34.68-2,1c-.38.16-.75.3-1.12.44s-.85.29-1.27.42l-.65.18-.94.2-.5.1a16.27,16.27,0,0,1-2.23.21c-.3,0-.6,0-.89,0s-.58,0-.86-.06a11,11,0,0,1-1.4-.24,3.79,3.79,0,0,0,.94,1.64h0A4.37,4.37,0,0,0,50,125.63Z"/><path class="cls-5" d="M51.41,129.12a2.43,2.43,0,0,0,.16.24,3.86,3.86,0,0,0,.5.54l.17.14a6.91,6.91,0,0,0,4.08,1.39,16.17,16.17,0,0,0,8.38-2.14c3.68-2,6.51-5.06,7.38-8a5.7,5.7,0,0,0,.24-2.14c0-.07,0-.15,0-.22a4,4,0,0,0-.17-.71L72,118a4.07,4.07,0,0,0-.18-.37,3.76,3.76,0,0,0-.24-.36,3,3,0,0,0-.21-.29l-.18-.2,0,.16c0,.07,0,.15-.06.22v0c-.05.18-.12.36-.18.55l-.09.23c-.07.18-.15.36-.23.54l-.11.23A17.71,17.71,0,0,1,63,126.1a17.07,17.07,0,0,1-10.19,2.24l-.25,0a5.66,5.66,0,0,1-.56-.12l-.23,0c-.19,0-.38-.1-.56-.16l-.23-.08h0l-.09,0,0,.13a2.79,2.79,0,0,0,.12.35,3.33,3.33,0,0,0,.21.46C51.28,128.93,51.34,129,51.41,129.12Z"/><circle class="cls-5" cx="55.83" cy="116.91" r="0.38" transform="translate(-49.04 40.84) rotate(-28.51)"/><path class="cls-5" d="M35.16,82.87A8.51,8.51,0,0,0,42,79.13a1.88,1.88,0,0,0,.34-1.56A1.88,1.88,0,0,0,40.9,77,8.51,8.51,0,0,0,34,80.75a1.88,1.88,0,0,0-.34,1.56A1.88,1.88,0,0,0,35.16,82.87Z"/><circle class="cls-5" cx="53.45" cy="111.02" r="0.38" transform="translate(-46.51 38.98) rotate(-28.51)"/><path class="cls-5" d="M79.16,129.14,79.1,129l-.47-.87-.06-.11-1.78-3.28c-.05.27-.12.53-.2.79-1.05,3.55-4.39,7.21-8.73,9.57A19,19,0,0,1,58,137.61h0a10.7,10.7,0,0,1-3.39-.72l.41.75.06.12.68,1.24.06.12.24.43.06.11,3.79,7,.06.12.14.26c2,3.62,8.5,3.86,14.56.57,4-2.16,7-5.45,7.94-8.6a5.19,5.19,0,0,0-.24-4l-.07-.13-.06-.12-1-1.77-.06-.12-.68-1.24-.06-.12-.24-.43-.06-.12-.23-.41-.07-.13Z"/><path class="cls-5" d="M42.69,108.7a17.81,17.81,0,0,0,9.56-2.34c4.18-2.27,7.37-5.8,8.3-9.21A5.91,5.91,0,0,0,60.33,93c0-.08-.07-.16-.11-.23s-.52-.71-.9-1.17A8.6,8.6,0,0,0,57,90.21l-.15-.07c-.5-.23-1.18-.59-1.92-1l-1.67-1c-1.53-.9-3.15-1.91-4.4-2.69a4.32,4.32,0,0,1-.11.58,7.76,7.76,0,0,1-2.24,3.49,11.34,11.34,0,0,1-2.34,1.69,11,11,0,0,1-2.71,1,8.62,8.62,0,0,1-2.55.22A5.87,5.87,0,0,1,37,92.09h0c0,1.39-.09,3.13-.17,4.74,0,.66-.08,1.29-.12,1.87-.06.83-.14,1.56-.22,2.08l0,.18a8.68,8.68,0,0,0-.18,3.21c.18.54.41,1.2.49,1.34l.08.12C37.86,107.41,39.93,108.5,42.69,108.7Z"/><path class="cls-5" d="M48.08,84.75,44.5,78.33A10.6,10.6,0,0,1,40,83.56a10.65,10.65,0,0,1-6.8.95l3.31,6.21c1.8.2,4.84.2,6.89-.91A12.65,12.65,0,0,0,48.08,84.75Z"/><circle class="cls-5" cx="57.88" cy="113.32" r="1.15" transform="translate(-47.08 41.38) rotate(-28.51)"/><path class="cls-5" d="M61.29,96.63a18.28,18.28,0,0,1-8.7,10.4,19.26,19.26,0,0,1-10.33,2.27,11.25,11.25,0,0,1-3.59-.76l5.72,11a5.07,5.07,0,0,0,1.85,1.9h0a6.13,6.13,0,0,0,.82.41,7.51,7.51,0,0,0,.83.31,10.14,10.14,0,0,0,2.47.42c.33,0,.67,0,1,0s.72,0,1.09-.08a18.24,18.24,0,0,0,4-.91c.39-.13.78-.29,1.17-.44a23.47,23.47,0,0,0,2.13-1c.46-.25,1.23-.7,2.13-1.29.35-.24.72-.49,1.1-.77a20.71,20.71,0,0,0,3.19-2.83c.25-.28.48-.57.71-.86s.4-.56.58-.85a8.19,8.19,0,0,0,.94-2l0-.16a6.26,6.26,0,0,0,.17-.88,6,6,0,0,0,0-.94,6.2,6.2,0,0,0-.78-2.69L61.67,95.67C61.61,95.95,61.37,96.35,61.29,96.63Z"/><polygon class="cls-3" points="49.14 86.18 49.14 86.18 49.14 86.18 49.14 86.18"/><path class="cls-3" d="M49.14,86.18h0Z"/><path class="cls-3" d="M31.63,83.16l.06.12-.06-.12Z"/><path class="cls-3" d="M48.74,85.45h0Z"/><path class="cls-3" d="M48.79,85.53h0l0,0h0Z"/><path class="cls-4" d="M55.29,115.9a1.15,1.15,0,1,0,1.56.46A1.15,1.15,0,0,0,55.29,115.9Zm.73,1.34a.38.38,0,1,1,.15-.52A.38.38,0,0,1,56,117.24Z"/><path class="cls-4" d="M57,111.64a1.91,1.91,0,1,0,2.59.77A1.91,1.91,0,0,0,57,111.64Zm1.46,2.69a1.15,1.15,0,1,1,.46-1.56A1.15,1.15,0,0,1,58.43,114.33Z"/><path class="cls-4" d="M56.39,109.2a.76.76,0,1,0,1.34-.73A.76.76,0,1,0,56.39,109.2Z"/><path class="cls-4" d="M52.9,110a1.15,1.15,0,1,0,1.56.46A1.15,1.15,0,0,0,52.9,110Zm.73,1.34a.38.38,0,1,1,.15-.52A.38.38,0,0,1,53.63,111.35Z"/><path class="cls-3" d="M31.74,83.36l.08.14-.13-.22Z"/><path class="cls-6" d="M60.45,98.23s7.1,11.38,7.09,13.9,1.33-3.24,1.33-3.24L65,101.59l-3.44-5.92Z"/><path class="cls-6" d="M42.62,78.47S47.57,86,47.4,87.84s1.38-2.15,1.38-2.15l-2.66-5.07-2.42-4.09Z"/><path class="cls-6" d="M75.38,126.37s7,11.43,7.14,13.87,1.11-3.47,1.11-3.47l-3.86-7.29-3.42-5.93Z"/><path class="cls-6" d="M60.11,92.29c-.67-.38-7.65-4.12-10.29-5.53L48,84.63l.09,2.59-2.43,3.6-3.11,1.61-3,.19-2.75-1.19,0-.24s.22,2.43.66,2.74A10,10,0,0,0,49,89.4c2.85,1.34,11.72,5.72,11.33,9.26C60.28,98.66,60.94,92.75,60.11,92.29Z"/><path class="cls-4" d="M78.36,124.24l-.06-.11-.1-.17-.06-.12-.08-.14-.07-.14-.08-.13-.06-.12-.09-.16L77.7,123l-.1-.17-.05-.11-.09-.16-.05-.11-.1-.16-.06-.12-.09-.15-.06-.12-.09-.16-.06-.12-.09-.15-.06-.13-.09-.15-.06-.12-.08-.14-.21-.39-.07-.11a1.31,1.31,0,0,0-.08-.16,6.19,6.19,0,0,0-2.5-2.46,5.07,5.07,0,0,0-.41-1,5.76,5.76,0,0,0-1.84-2,5.74,5.74,0,0,0-.67-2.63,5.41,5.41,0,0,0-1.25-1.53,7.24,7.24,0,0,0-.9-4.35l-.08-.14-.06-.13-.09-.16-.06-.11-.08-.14-.06-.12-.09-.15-.07-.14-.08-.14L67.9,105l-.08-.14-.06-.12-.08-.14-.07-.14-.08-.14-.06-.13-.08-.12a.65.65,0,0,0-.06-.13l-.1-.17-.06-.12-.1-.18-.06-.11-.07-.13-.07-.14-.08-.13-.07-.14-.09-.15-.06-.13-.09-.14-.06-.13-.08-.15-.05-.1-.1-.16-.06-.13-.08-.13-.07-.14-.08-.14-.15-.28-.07-.13-.08-.14a.82.82,0,0,0-.07-.13l-.08-.15-.06-.12a1.27,1.27,0,0,1-.08-.14l-.07-.14-.08-.12a.65.65,0,0,0-.06-.13L65,99.72,65,99.59l-.08-.14-.07-.13-.09-.15-.06-.12-.08-.14-.07-.13-.08-.13a.69.69,0,0,0-.06-.13l-.09-.16-.06-.12-.09-.15L64.07,98,64,97.82l-.06-.12a1,1,0,0,0-.08-.14,1.35,1.35,0,0,0-.07-.14l-.08-.14-.06-.12L63.54,97l-.07-.13-.15-.27-.09-.15-.06-.12-.09-.16L63,96.06l-.08-.13-.06-.13-.08-.14-.06-.12-.1-.15-.06-.11a.43.43,0,0,0-.08-.13.67.67,0,0,0-.07-.15l-.08-.15-.06-.12-.07-.12-.06-.13-.08-.14L62,94.2l-.1-.17-.06-.12-.08-.15-.06-.12-.08-.14-.07-.14-.08-.12-.07-.14-.09-.16-.06-.11-.07-.1-.08-.17a13.2,13.2,0,0,0-1-1.36L60,91.13a8.9,8.9,0,0,0-2.72-1.59l-.14-.06c-1.83-.81-6.29-3.48-8.25-4.68L47.1,81.56a3.6,3.6,0,0,0,.09-.53.42.42,0,0,0,0-.15h0a.42.42,0,0,0-.67-.32l-.3-.53a3.64,3.64,0,0,0,.1-.56.42.42,0,0,0,0-.15h0a.42.42,0,0,0-.69-.3l-1.18-2.11a2.7,2.7,0,0,0-.16-.36c-1.15-2.12-4.9-2.3-8.37-.41s-5.24,4.93-4.31,7l.06.12.13.22,1.64,2.93a.42.42,0,0,0-.35.17.43.43,0,0,0,.06.58.42.42,0,0,0,.19.11,4.5,4.5,0,0,0,.75.31l.48.85-.15-.08a.43.43,0,0,0-.53.67.42.42,0,0,0,.19.11,4.65,4.65,0,0,0,1.1.4l1.15,2.05c-.08.07-.13.14-.09.19-.09,2.35-.31,7-.65,8.86l0,.16a9.11,9.11,0,0,0-.2,3.64.6.6,0,0,0,0,.08,12.54,12.54,0,0,0,.58,1.55l.07.12a1.69,1.69,0,0,0,.08.15l.08.15.06.12.07.11c0,.06,0,.11.08.16l.08.14.06.13.09.15.06.13.08.14.06.13.08.14.06.12.09.15.06.13.09.16.05.11.1.17a.89.89,0,0,0,.06.11l.08.14.07.14.09.14.06.12.08.15.06.13.15.26a.69.69,0,0,0,.08.14l.07.15.09.15.06.12.09.15.29.54.06.12.08.14.07.13.08.14.13.24.09.18.07.13.06.12.09.15a1.37,1.37,0,0,0,.07.14l.08.14.06.11.1.17.06.12.07.12.08.15.08.15.06.13.08.13.06.12.09.16.06.11.09.15.15.28.06.12.09.16.06.13.08.14.06.13.08.14.07.14.07.13.06.13.09.15.06.12a1.07,1.07,0,0,0,.09.16.78.78,0,0,0,.06.13l.08.14.07.13.09.15.06.13.11.22.07.13.08.14.06.12.09.15.06.12a1.16,1.16,0,0,0,.08.15l.07.13.08.14.06.13.07.12.07.15.09.16L43,119l.06.12.09.15.07.14.08.14a.85.85,0,0,0,.07.14l.08.13.06.12a6.57,6.57,0,0,0,3.1,2.8,5.83,5.83,0,0,0,.67,2.2,5.92,5.92,0,0,0,1.82,2,6,6,0,0,0,.69,2.62,6.56,6.56,0,0,0,.58.85,6.39,6.39,0,0,0,.73,3.47s.05.07.07.11a1.56,1.56,0,0,0,.07.14l.09.17.06.12.09.16.05.1.09.16.07.13.08.15.05.11.09.16.07.12.08.14.06.13.1.17.19.37.1.17.06.13.14.26.08.14.06.13.09.16.06.12.15.27.09.15.06.12.08.14.06.12.1.17.06.12.06.11.09.17.08.14.06.13.09.15.06.12.08.14.07.13.08.15.06.11.08.14.07.14.13.25.1.17.06.11.09.15.06.12.09.16.06.12.09.15a1.22,1.22,0,0,0,.06.13l.08.14.06.13.09.14.05.11.1.18,0,.1.1.17.05.1s.05.09.1.17l.05.11.09.16.06.12.15.27.08.15.06.12.08.14a.75.75,0,0,0,.06.12l.09.16.06.13.08.14.06.12.09.15.06.12.1.17.05.11.09.15.06.13.08.14.06.12.08.15.06.12.08.14.06.12.08.15.05.11.1.17.06.13.08.14.06.12.09.16.05.11.07.12.08.16.09.15.06.12c2.42,4.45,9.78,5,16.75,1.18,4.35-2.25,7.7-5.91,8.75-9.46h0a6.78,6.78,0,0,0-.37-5.26l-.06-.1-.32-.59-.06-.12-.09-.15-.06-.12-.08-.15-.06-.12-.08-.14-.06-.12-.09-.15-.06-.12-.1-.17-.06-.11-.08-.15-.06-.12-.09-.15-.06-.12-.07-.13-.06-.14-.1-.16-.06-.12-.09-.15-.05-.11-.1-.17-.05-.11-.09-.15-.06-.12-.08-.14-.06-.12-.09-.15-.06-.13-.15-.27-.08-.14-.07-.13-.09-.15-.05-.11-.09-.16-.06-.13-.08-.15-.06-.12a1.33,1.33,0,0,0-.08-.13l-.06-.13-.1-.17-.05-.11-.09-.16-.06-.12-.09-.16-.06-.12-.08-.15-.06-.1a1.15,1.15,0,0,0-.1-.17l-.06-.12-.09-.16-.06-.12-.09-.15-.15-.28-.06-.12-.08-.14-.07-.13-.07-.19-.07-.12L78.8,125l-.15-.27-.06-.13-.08-.14-.07-.14ZM34,80.75A8.51,8.51,0,0,1,40.9,77a1.88,1.88,0,0,1,1.49.56A1.88,1.88,0,0,1,42,79.13a8.51,8.51,0,0,1-6.89,3.74,1.88,1.88,0,0,1-1.49-.56A1.88,1.88,0,0,1,34,80.75Zm6.1,3a9,9,0,0,0,4.31-4.57l.74,1.32a5.73,5.73,0,0,1-.29.56,11.92,11.92,0,0,1-4.15,3.83.42.42,0,0,0,.42.73h0a12.57,12.57,0,0,0,4.44-4.12l.06-.1.37.66a5.69,5.69,0,0,1-.3.58,11.92,11.92,0,0,1-4.15,3.83.42.42,0,0,0,.42.73h0a12.57,12.57,0,0,0,4.44-4.12l.07-.12,1,1.8A10.71,10.71,0,0,1,43,89.16a10.36,10.36,0,0,1-6,1.34l-.45-.81A8.76,8.76,0,0,0,39.8,89l0,0a.42.42,0,0,0-.36-.76,7.45,7.45,0,0,1-3.33.6l-.56-1a8.52,8.52,0,0,0,3.46-.68l0,0a.42.42,0,0,0-.36-.76,7.16,7.16,0,0,1-3.65.57l-1.13-2A9,9,0,0,0,40.11,83.77ZM37,104.06a7.87,7.87,0,0,1,.22-3l0-.16c.09-.49.17-1.16.24-1.92.05-.54.1-1.12.14-1.72.1-1.48.18-3.08.23-4.36h0a5.5,5.5,0,0,0,1.74.36A8.34,8.34,0,0,0,42,93a10.77,10.77,0,0,0,2.57-1,11.16,11.16,0,0,0,2.23-1.59,7.45,7.45,0,0,0,2.16-3.25,4,4,0,0,0,.11-.53c1.16.7,2.67,1.6,4.1,2.4l1.55.86c.69.37,1.32.69,1.79.89l.14.06a7.78,7.78,0,0,1,2.21,1.24c.34.41.75.93.83,1.06s.06.14.1.21a5.3,5.3,0,0,1,.14,3.81c-.93,3.15-4,6.45-7.94,8.6a17.41,17.41,0,0,1-9,2.3c-2.59-.14-4.52-1.11-5.45-2.72l-.07-.11C37.33,105.15,37.11,104.55,37,104.06Zm43.17,26.86.06.12.24.43.06.12.68,1.24.06.12,1,1.77.06.12.07.13a5.19,5.19,0,0,1,.24,4c-.93,3.15-4,6.44-7.94,8.6-6.06,3.29-12.59,3.06-14.56-.57l-.14-.26-.06-.12-3.79-7-.06-.11-.24-.43-.06-.12L55,137.76l-.06-.12-.41-.75a10.7,10.7,0,0,0,3.39.72h0a19,19,0,0,0,9.89-2.49c4.34-2.36,7.68-6,8.73-9.57.08-.27.14-.53.2-.79L78.56,128l.06.11.47.87.07.13.67,1.23.07.13Zm-5.26-9.66a5.28,5.28,0,0,1,.15,3.83c-.93,3.15-4,6.44-7.94,8.6a17.4,17.4,0,0,1-9,2.3c-2.59-.14-4.51-1.11-5.45-2.71h0l-.07-.11a4.36,4.36,0,0,1-.44-1.24l.11.06a9.28,9.28,0,0,0,4,1.08,17.78,17.78,0,0,0,9.24-2.33c4-2.2,7.17-5.63,8.16-8.95a8.16,8.16,0,0,0,.3-1.63s0-.09,0-.14a4.2,4.2,0,0,1,.83,1.06C74.82,121.13,74.84,121.19,74.87,121.25ZM48.71,124.2a4.16,4.16,0,0,1-.34-.83,11,11,0,0,0,1.4.24c.28,0,.57.05.86.06s.59,0,.89,0a16.27,16.27,0,0,0,2.23-.21l.5-.1.94-.2.65-.18c.42-.12.85-.26,1.27-.42s.74-.28,1.12-.44c.67-.28,1.34-.6,2-1s1.26-.71,2.06-1.23l1-.71c.37-.27.76-.56,1.14-.87.18-.14.34-.28.51-.43s.52-.45.77-.69l.35-.35a15.27,15.27,0,0,0,1.49-1.71c.18-.24.35-.49.51-.73a8.62,8.62,0,0,0,.43-.75,9,9,0,0,0,.5-1.12,3.06,3.06,0,0,1,.28.43,3.65,3.65,0,0,1,.37,1,4.25,4.25,0,0,1,.11.92,5.46,5.46,0,0,1-.05.86,7.17,7.17,0,0,1-.2.92v0c0,.08-.06.17-.09.25s-.12.36-.2.54-.07.18-.11.27-.17.36-.26.54l-.16.27a16.76,16.76,0,0,1-6.54,6.08,16.12,16.12,0,0,1-8.59,2.12l-.31,0-.57-.08-.28,0-.56-.14-.26-.07a6.17,6.17,0,0,1-.85-.34,5.32,5.32,0,0,1-.74-.45,4.37,4.37,0,0,1-.69-.62h0A4.13,4.13,0,0,1,48.71,124.2Zm2.3,4.18a2.8,2.8,0,0,1-.12-.35l0-.13.09,0h0l.23.08c.18.06.37.12.56.16l.23,0a5.66,5.66,0,0,0,.56.12l.25,0A17.07,17.07,0,0,0,63,126.1a17.71,17.71,0,0,0,7.54-7.39l.11-.23c.08-.18.16-.36.23-.54l.09-.23c.06-.18.12-.37.18-.55v0c0-.07,0-.15.06-.22l0-.16.18.2a3,3,0,0,1,.21.29,3.76,3.76,0,0,1,.24.36A4.06,4.06,0,0,1,72,118l.09.26a4,4,0,0,1,.17.71c0,.07,0,.15,0,.22a5.7,5.7,0,0,1-.24,2.14c-.86,2.92-3.69,6-7.38,8a16.17,16.17,0,0,1-8.38,2.14A6.91,6.91,0,0,1,52.24,130l-.17-.14a3.86,3.86,0,0,1-.5-.54,2.43,2.43,0,0,1-.16-.24c-.07-.1-.13-.19-.19-.29A3.33,3.33,0,0,1,51,128.37Zm16.93-18.72a5.74,5.74,0,0,1,0,.89,5.94,5.94,0,0,1-.17.84l0,.15a7.78,7.78,0,0,1-.89,1.92c-.17.27-.35.54-.55.8s-.43.55-.67.82a19.66,19.66,0,0,1-3,2.69c-.36.27-.71.51-1,.73-.85.56-1.58,1-2,1.22a22.28,22.28,0,0,1-2,1c-.37.15-.74.3-1.11.42a17.31,17.31,0,0,1-3.77.86c-.35,0-.7.06-1,.07s-.65,0-1,0a9.63,9.63,0,0,1-2.34-.39,7.13,7.13,0,0,1-.79-.29,5.82,5.82,0,0,1-.78-.39h0a4.82,4.82,0,0,1-1.76-1.8L39.42,109a10.68,10.68,0,0,0,3.41.72,19,19,0,0,0,9.89-2.49c4.34-2.35,7.68-6,8.73-9.57.08-.27.15-.54.2-.8L67.2,107.1A5.89,5.89,0,0,1,67.94,109.65Z"/></g></g></svg>