<svg xmlns="http://www.w3.org/2000/svg" viewBox="0 0 118.88 163.17"><defs><style>.cls-1,.cls-4,.cls-6,.cls-7{fill:#292728;}.cls-1{opacity:0.15;}.cls-2{fill:#f4f4f5;}.cls-3{fill:#371b14;}.cls-5{fill:#fac3c2;}.cls-6{opacity:0.2;}.cls-7{fill-rule:evenodd;}</style></defs><title>Asset 32</title><g id="Layer_2" data-name="Layer 2"><g id="Layer_1-2" data-name="Layer 1"><path class="cls-1" d="M25.34,10.1,28.2,56.43s25.58,8.23,53.48,3.4c2.35-.41,2-4.83,2-4.83L64.33,56.79,41.43,53.92l-6.62-1.43L30.52,4.74l-2.86-.36Z"/><path class="cls-2" d="M106.06,7.35A17.28,17.28,0,0,1,107,4.8c-10.05-2.52-10.73-2.4-15.06.14-.2.28-1.7,1-2.18,2.54a1.13,1.13,0,0,1,0,.16c-1.94,18.57-4.35,51.81-4.32,51.9a1.46,1.46,0,0,1-1.16,1.7C72.47,63.49,61.5,65,50.56,65a107.6,107.6,0,0,1-28.31-3.69l-.2,0H22a1.46,1.46,0,0,1-1.37-1.55c1-15.89,4.46-52.69,4.51-52.88A8.16,8.16,0,0,1,26,4.79C16,2.28,15.27,2.4,11,4.94c-.2.28-1.74,1.05-2.22,2.65a1.13,1.13,0,0,1,0,.16c-12.24,116.84-1.9,143.1-.51,146,28,8.74,39.47,8.76,97.12,0C102.43,146.2,94.78,114.92,106.06,7.35Z"/><path class="cls-2" d="M108.94,7.56s0,0,0,.08c-11.72,111.9-2.73,140.72-.73,145.5a3.94,3.94,0,0,0,2.15-1.52l0,0,0,0h0c.69-1.24,12.31-24.9-.37-146A4.74,4.74,0,0,0,108.94,7.56Z"/><path class="cls-2" d="M23.6,58.62c20.13,5.28,37.58,4,58.88,0,0-.74.1-1.48.14-2.22a151.62,151.62,0,0,1-20,1.46A109,109,0,0,1,34,54.13c-.77-.21-.93-2-.86-2.12-1-14.29-2.34-29.93-4.08-46.51h0a4.83,4.83,0,0,0-1.14,2.09,1.13,1.13,0,0,1,0,.16C26.05,26,24.59,43.12,23.6,58.62Z"/><polygon class="cls-3" points="8.25 153.74 8.25 153.74 8.25 153.74 8.25 153.74"/><path class="cls-1" d="M108.33,10.1s7.69,110.18.36,143.45c-.58,2.64,5.9-7.69,5.9-7.69l2.86-38.28-3-76.73-3-26.29-3,.36Z"/><path class="cls-4" d="M113,5.35c0-.24-1.44-2.73-2.71-2.75C96.7-.81,96.14-.93,90,2.69c-.08,0-.13.13-.2.19a6,6,0,0,0-2.91,4c-.06.21-3.1,32.36-4.07,46.54-18,2.44-32.12,1.89-46.75-1.81-1-14.26-4.06-46.78-4.13-47a2.82,2.82,0,0,0-2.66-2C15.72-.82,15.16-.94,9,2.68a1.36,1.36,0,0,0-.22.2c-1.27.58-3,4.55-3,4.56-13.53,129.07.61,148.69.71,148.76,1.69,1,20.2,7,39.13,7,20.16,0,62-6.87,62.05-6.87s3.65-1.4,4.81-2.76l0,0c.14-.15,13.83-19.37.36-148.15ZM29.09,5.5h0C30.83,22.07,32.21,37.72,33.18,52c-.06.11.09,1.91.86,2.12a109,109,0,0,0,28.55,3.72,151.62,151.62,0,0,0,20-1.46c0,.74-.1,1.49-.14,2.22-21.3,4-38.76,5.29-58.88,0,1-15.5,2.46-32.6,4.37-50.87a1.13,1.13,0,0,0,0-.16A4.83,4.83,0,0,1,29.09,5.5ZM8.25,153.74h0c-1.4-2.89-11.74-29.16.51-146a1.13,1.13,0,0,0,0-.16C9.22,6,10.75,5.22,11,4.94,15.27,2.4,16,2.28,26,4.79a8.16,8.16,0,0,0-.9,2.09c-.05.18-3.52,37-4.51,52.88A1.46,1.46,0,0,0,22,61.31h.09l.2,0A107.6,107.6,0,0,0,50.56,65c10.94,0,21.9-1.49,33.73-3.74a1.46,1.46,0,0,0,1.16-1.7c0-.08,2.38-33.33,4.32-51.9a1.13,1.13,0,0,0,0-.16c.48-1.5,2-2.26,2.18-2.54,4.32-2.54,5-2.66,15.06-.14a17.28,17.28,0,0,0-.94,2.55c-11.27,107.57-3.63,138.86-.69,146.38C47.72,162.5,36.24,162.48,8.25,153.74Zm102.17-2.17h0l0,0,0,0a3.94,3.94,0,0,1-2.15,1.52c-2-4.78-11-33.6.73-145.5,0,0,0-.05,0-.08a4.74,4.74,0,0,1,1.11-2C122.73,126.67,111.11,150.32,110.42,151.57Z"/><ellipse class="cls-5" cx="30.31" cy="80.54" rx="3.66" ry="0.83" transform="translate(-40.62 31.8) rotate(-34.88)"/><path class="cls-5" d="M62,143.37c1.54-.21,4.54-1.06,9.12-4.25s6.42-5.71,7.14-7.08l-13.66-19.6-.84.6c-3.88,2.71-11,6.84-18,7Z"/><path class="cls-5" d="M40,88l-5.56-8a14.64,14.64,0,0,1-6.12,4.27l5.56,8a1.38,1.38,0,0,1,.2,1.18l-3.43,12.1,28.84,41.36c1.06.31,5.55,1.06,13.78-4.67S82.32,132,82.4,130.9L53.57,89.53,41,88.56A1.38,1.38,0,0,1,40,88Zm23.89,22.24a1.39,1.39,0,0,1,2,.28l14.14,20.29a1.39,1.39,0,0,1,.16,1.3c-.72,1.88-2.7,4.89-8,8.6h0c-5.32,3.71-8.83,4.52-10.84,4.56a1.39,1.39,0,0,1-1.16-.6L42.71,119.58a1.4,1.4,0,0,1,1.39-2.17c6.88,1.23,14.85-3.68,18-5.85C63.2,110.77,63.87,110.21,63.88,110.21Z"/><path class="cls-6" d="M33.09,80.71,39.57,90s12.87.56,13.41,1.22c1.49,1.82,29.33,40.59,29.48,42.86s1.89-3.78,1.89-3.78l-30-42.06-7.93-.67-4.35-.31L35,78Z"/><path class="cls-4" d="M54.44,86.8l-12.54-1-6.28-9a1.41,1.41,0,0,0-1.2-.6h0c-1.2-.08-3.37.79-5.55,2.31s-3.73,3.24-4.08,4.4v0a1.38,1.38,0,0,0,.15,1.33l6.28,9-3.43,12.1a1.39,1.39,0,0,0,.2,1.18l29.46,42.26a1.6,1.6,0,0,0,.49.44c.58.31,6,2.82,16.92-4.77s10.41-13.57,10.33-14.23a1.52,1.52,0,0,0-.25-.61L55.47,87.4a1.4,1.4,0,0,0-1-.59ZM29.83,79.86c1.66-1.16,3.21-1.79,3.48-1.41s-.87,1.62-2.53,2.77S27.57,83,27.31,82.63,28.17,81,29.83,79.86Zm52.57,51c-.08,1.14-1,5.6-9.15,11.31s-12.72,5-13.78,4.67L30.64,105.52l3.43-12.1a1.38,1.38,0,0,0-.2-1.18l-5.56-8A14.64,14.64,0,0,0,34.44,80L40,88a1.38,1.38,0,0,0,1,.59l12.54,1Z"/><path class="cls-4" d="M57.16,127.8,60.21,131l3.17-3-3.06-3.24.74-.06-.13-1.63-2,.17-.8.76a1.09,1.09,0,1,1-1.58,1.49l-.8.76-.28,2,1.62.23Z"/><path class="cls-7" d="M65.68,128.13a.18.18,0,0,1,.11,0,1.37,1.37,0,0,1,1.29,1.74.18.18,0,1,1-.35-.1,1,1,0,0,0-.94-1.27.18.18,0,0,1-.1-.34Zm-.83-.37a2,2,0,1,0,2.66.69A1.95,1.95,0,0,0,64.85,127.76Z"/><path class="cls-7" d="M67.86,124.62h0a.18.18,0,0,1,.13,0,1.08,1.08,0,0,1,.76.41,1.16,1.16,0,0,1,.15.9.19.19,0,1,1-.36-.07.79.79,0,0,0-.09-.62.7.7,0,0,0-.5-.26.18.18,0,0,1-.09-.33Zm-.54-.41a1.47,1.47,0,1,0,2,.52A1.47,1.47,0,0,0,67.32,124.21Z"/><path class="cls-7" d="M64.26,124.72h0a.18.18,0,0,1,.13,0,.81.81,0,0,1,.64,1,.19.19,0,1,1-.35-.12.47.47,0,0,0-.35-.54.19.19,0,0,1-.08-.33Zm-.61-.39a1.29,1.29,0,1,0,1.75.46A1.29,1.29,0,0,0,63.65,124.32Z"/><path class="cls-4" d="M37.43,87.45a.64.64,0,1,1-.74-1.06c2.85-2,2.47-3.41,2.47-3.42a.66.66,0,0,1,.41-.8.63.63,0,0,1,.8.37C40.45,82.77,41.11,84.88,37.43,87.45Z"/><path class="cls-4" d="M36.13,85.58a.64.64,0,1,1-.74-1.06c2.85-2,2.47-3.41,2.47-3.42a.66.66,0,0,1,.41-.8.63.63,0,0,1,.8.37C39.15,80.91,39.81,83,36.13,85.58Z"/><path class="cls-4" d="M34.78,83.75A.64.64,0,1,1,34,82.69c2.84-2,2.48-3.39,2.47-3.4a.64.64,0,1,1,1.21-.45C37.81,79.07,38.47,81.18,34.78,83.75Z"/><path class="cls-4" d="M31.74,87.24h0a7.44,7.44,0,0,1-4.4,1.4.64.64,0,0,1,.1-1.28A6.31,6.31,0,0,0,31,86.18a.64.64,0,0,1,.73,1.06Z"/><path class="cls-4" d="M33.16,89.29h0a7.44,7.44,0,0,1-4.4,1.4.64.64,0,0,1,.1-1.28,6.31,6.31,0,0,0,3.58-1.18.64.64,0,0,1,.73,1.06Z"/><path class="cls-4" d="M42.68,118a1.4,1.4,0,0,0,0,1.55l17.47,25.06a1.39,1.39,0,0,0,1.16.6c2,0,5.52-.85,10.84-4.56h0c5.32-3.71,7.3-6.72,8-8.6a1.39,1.39,0,0,0-.16-1.3L65.91,110.49a1.39,1.39,0,0,0-2-.28s-.68.56-1.81,1.35c-3.11,2.17-11.09,7.08-18,5.85A1.39,1.39,0,0,0,42.68,118Zm21.05-5,.84-.6L78.24,132c-.72,1.37-2.57,3.9-7.14,7.08s-7.58,4-9.12,4.25L45.69,120C52.78,119.89,59.85,115.75,63.74,113Z"/></g></g></svg>