<svg xmlns="http://www.w3.org/2000/svg" viewBox="0 0 118.88 163.17"><defs><style>.cls-1,.cls-4,.cls-6{fill:#292728;}.cls-1{opacity:0.15;}.cls-2{fill:#f4f4f5;}.cls-3{fill:#371b14;}.cls-5{fill:#fee445;}.cls-6{opacity:0.2;}</style></defs><title>Asset 33</title><g id="Layer_2" data-name="Layer 2"><g id="Layer_1-2" data-name="Layer 1"><path class="cls-1" d="M25.34,10.1,28.2,56.43s25.58,8.23,53.48,3.4c2.35-.41,2-4.83,2-4.83L64.33,56.79,41.43,53.92l-6.62-1.43L30.52,4.74l-2.86-.36Z"/><path class="cls-2" d="M106.06,7.35A17.28,17.28,0,0,1,107,4.8c-10.05-2.52-10.73-2.4-15.06.14-.2.28-1.7,1-2.18,2.54a1.13,1.13,0,0,1,0,.16c-1.94,18.57-4.35,51.81-4.32,51.9a1.46,1.46,0,0,1-1.16,1.7C72.47,63.49,61.5,65,50.56,65a107.6,107.6,0,0,1-28.31-3.69l-.2,0H22a1.46,1.46,0,0,1-1.37-1.55c1-15.89,4.46-52.69,4.51-52.88A8.16,8.16,0,0,1,26,4.79C16,2.28,15.27,2.4,11,4.94c-.2.28-1.74,1.05-2.22,2.65a1.13,1.13,0,0,1,0,.16c-12.24,116.84-1.9,143.1-.51,146,28,8.74,39.47,8.76,97.12,0C102.43,146.2,94.78,114.92,106.06,7.35Z"/><path class="cls-2" d="M108.94,7.56s0,0,0,.08c-11.72,111.9-2.73,140.72-.73,145.5a3.94,3.94,0,0,0,2.15-1.52l0,0,0,0h0c.69-1.24,12.31-24.9-.37-146A4.74,4.74,0,0,0,108.94,7.56Z"/><path class="cls-2" d="M23.6,58.62c20.13,5.28,37.58,4,58.88,0,0-.74.1-1.48.14-2.22a151.62,151.62,0,0,1-20,1.46A109,109,0,0,1,34,54.13c-.77-.21-.93-2-.86-2.12-1-14.29-2.34-29.93-4.08-46.51h0a4.83,4.83,0,0,0-1.14,2.09,1.13,1.13,0,0,1,0,.16C26.05,26,24.59,43.12,23.6,58.62Z"/><polygon class="cls-3" points="8.25 153.74 8.25 153.74 8.25 153.74 8.25 153.74"/><path class="cls-1" d="M108.33,10.1s7.69,110.18.36,143.45c-.58,2.64,5.9-7.69,5.9-7.69l2.86-38.28-3-76.73-3-26.29-3,.36Z"/><path class="cls-4" d="M113,5.35c0-.24-1.44-2.73-2.71-2.75C96.7-.81,96.14-.93,90,2.69c-.08,0-.13.13-.2.19a6,6,0,0,0-2.91,4c-.06.21-3.1,32.36-4.07,46.54-18,2.44-32.12,1.89-46.75-1.81-1-14.26-4.06-46.78-4.13-47a2.82,2.82,0,0,0-2.66-2C15.72-.82,15.16-.94,9,2.68a1.36,1.36,0,0,0-.22.2c-1.27.58-3,4.55-3,4.56-13.53,129.07.61,148.69.71,148.76,1.69,1,20.2,7,39.13,7,20.16,0,62-6.87,62.05-6.87s3.65-1.4,4.81-2.76l0,0c.14-.15,13.83-19.37.36-148.15ZM29.09,5.5h0C30.83,22.07,32.21,37.72,33.18,52c-.06.11.09,1.91.86,2.12a109,109,0,0,0,28.55,3.72,151.62,151.62,0,0,0,20-1.46c0,.74-.1,1.49-.14,2.22-21.3,4-38.76,5.29-58.88,0,1-15.5,2.46-32.6,4.37-50.87a1.13,1.13,0,0,0,0-.16A4.83,4.83,0,0,1,29.09,5.5ZM8.25,153.74h0c-1.4-2.89-11.74-29.16.51-146a1.13,1.13,0,0,0,0-.16C9.22,6,10.75,5.22,11,4.94,15.27,2.4,16,2.28,26,4.79a8.16,8.16,0,0,0-.9,2.09c-.05.18-3.52,37-4.51,52.88A1.46,1.46,0,0,0,22,61.31h.09l.2,0A107.6,107.6,0,0,0,50.56,65c10.94,0,21.9-1.49,33.73-3.74a1.46,1.46,0,0,0,1.16-1.7c0-.08,2.38-33.33,4.32-51.9a1.13,1.13,0,0,0,0-.16c.48-1.5,2-2.26,2.18-2.54,4.32-2.54,5-2.66,15.06-.14a17.28,17.28,0,0,0-.94,2.55c-11.27,107.57-3.63,138.86-.69,146.38C47.72,162.5,36.24,162.48,8.25,153.74Zm102.17-2.17h0l0,0,0,0a3.94,3.94,0,0,1-2.15,1.52c-2-4.78-11-33.6.73-145.5,0,0,0-.05,0-.08a4.74,4.74,0,0,1,1.11-2C122.73,126.67,111.11,150.32,110.42,151.57Z"/><path class="cls-5" d="M72.68,85.3l-.05,0Z"/><path class="cls-5" d="M69.57,112.19c1-1.78.86-1.65,1.61-3a21.65,21.65,0,0,0,.74-16.53l-.12-.31.88-1.8a12.22,12.22,0,0,1-5.39-3.11l-1,1.52-.45,0c-9.2.93-13.69,8.92-13.73,9l-1.49,2.74C51.54,102.61,56.34,111.31,69.57,112.19Z"/><path class="cls-5" d="M57.6,118.38a2.89,2.89,0,0,0,.19-2.14l-.56.14a2.32,2.32,0,0,1-.12,1.71Z"/><path class="cls-5" d="M78,85.51c-3.91-.15-7.78-3.42-9.46-5l-2.42,4.3h0a13.53,13.53,0,0,0,9.3,5.33Z"/><path class="cls-5" d="M78.18,84.54a14.71,14.71,0,0,0-8.72-4.86C71.27,81.38,74.82,84.29,78.18,84.54Z"/><path class="cls-5" d="M71.73,87l-.05,0Z"/><path class="cls-5" d="M59.57,130c-2,.43-5.52.21-11.07-2.92S41.06,121,40.4,119L33,132.44c-.11.86-.41,6.13,7.12,10.37,8.48,4.78,12,.66,12.1.49h0C52.57,142.8,54.25,139.47,59.57,130Z"/><path class="cls-5" d="M49.26,125.73c5.35,3,8.49,3.14,10.18,2.71a3.36,3.36,0,0,0,1.31-.6l8-14.15c-11.79-1.07-17.18-8.29-19-11.34L41.7,116.67C41.6,117.17,41.15,121.16,49.26,125.73Z"/><circle class="cls-5" cx="53.41" cy="121.73" r="0.3" transform="translate(-4.31 1.98) rotate(-2.04)"/><path class="cls-4" d="M52.23,112.87a.11.11,0,0,1,.11.1.12.12,0,0,1-.1.12l-2,.17a.13.13,0,0,0,0,.27l2.13-.06a.11.11,0,0,1,.11.1.12.12,0,0,1-.1.12l-2.13.18a.13.13,0,0,0,0,.27l2.12-.06a.11.11,0,0,1,.11.1.12.12,0,0,1-.1.12l-2.11.17a.13.13,0,0,0,0,.27l2.16-.06a.11.11,0,0,1,.11.1.12.12,0,0,1-.1.12l-2.16.17a.13.13,0,0,0,0,.27l2.15-.06a.11.11,0,0,1,.11.1.12.12,0,0,1-.1.12l-2.15.17a.14.14,0,0,0-.13.14.13.13,0,0,0,.14.13l2.15-.06a.11.11,0,0,1,.11.1.12.12,0,0,1-.1.12l-2.16.18a.14.14,0,0,0-.13.14.13.13,0,0,0,.14.13l2.09-.06a.11.11,0,0,1,.11.1.12.12,0,0,1-.1.12l-2.09.18a.13.13,0,0,0-.12.13.13.13,0,0,0,.14.13l2.1-.06a.11.11,0,0,1,.11.1.12.12,0,0,1-.1.12l-2.12.17a.14.14,0,0,0-.12.13.13.13,0,0,0,.14.13l2-.06a.11.11,0,0,1,.11.1.12.12,0,0,1-.1.12l-2.15.2a.27.27,0,0,0,.26.27l1.61.07a.66.66,0,0,1,.68.68l0,2.67a.64.64,0,1,0,1.28,0l-.31-8.59a.85.85,0,0,0-.87-.83h0l-2.58.27a.28.28,0,0,0-.24.29Zm1.17,8.57a.3.3,0,1,1-.29.31A.3.3,0,0,1,53.4,121.44Z"/><path class="cls-4" d="M55.74,119.27a1.71,1.71,0,0,0,2.35-.59,4,4,0,0,0,0-3.33,4,4,0,0,0-2.94,1.57A1.71,1.71,0,0,0,55.74,119.27Zm2-3a2.89,2.89,0,0,1-.19,2.14l-.49-.29a2.32,2.32,0,0,0,.12-1.71Z"/><path class="cls-3" d="M71.67,87h0Z"/><path class="cls-3" d="M72.62,85.33h0Z"/><path class="cls-6" d="M76.17,84.78s-2.23,4.59-3.15,5,2.22.55,2.22.55L78,85.07Z"/><path class="cls-6" d="M74,98.68l-1.47-5.54-.23-1.77.32,0c.14,0,.55-1.11.55-1.11l-6-3.45-.56.94a8.65,8.65,0,0,0,4.8,3.38l-.48,1c1,4.13,3.32,9-3.48,20-.23.37,2,.32,2,.32l3.15-4.91Z"/><path class="cls-6" d="M67.07,112.82s-16.24,31.35-18.91,32.26,4.27-.61,4.27-.61l17.11-31.42Z"/><path class="cls-4" d="M73.2,110.32a23.44,23.44,0,0,0,1.11-17.83l.53-1h.31l.48,0,.23-.42,1.46-2.6.46-.07a.4.4,0,0,0,0-.79l.46-.82.46-.07a.4.4,0,0,0,0-.79l.77-1.37.22-.38-.23-.37-.24-.39A16.53,16.53,0,0,0,70,78.16l-.51-.05-.49,0-.24.43-1.51,2.67a.41.41,0,0,0-.59.51s.06.11.15.27l-.37.65a.41.41,0,0,0-.62.49s.06.13.17.31l-.85,1.51-.21.38.22.37.23.39-.6.79a19,19,0,0,0-1.93.38,21.48,21.48,0,0,0-12.7,9.68L30.92,131.44l0,.05,0,.06-.08.24,0,.05v.05c-.06.31-1.32,7.53,8.24,12.92,4.15,2.34,7.85,3.12,11,2.33a7.7,7.7,0,0,0,4-2.41C54.54,144.11,64.73,125.46,73.2,110.32Zm5-25.78c-3.36-.24-6.91-3.15-8.72-4.86A14.71,14.71,0,0,1,78.18,84.54Zm-9,.93a8.2,8.2,0,0,1-2-1.79l.39-.69a9,9,0,0,0,2.05,1.75h0a.41.41,0,0,0,.42-.69A8.19,8.19,0,0,1,68,82.23l.8-1.42c1.57,1.52,5.18,4.57,8.83,4.7l-.3.54a8.05,8.05,0,0,1-4.54-1.42.41.41,0,0,0-.66.42.4.4,0,0,0,.18.23h0c.11.08.27.19.48.31a9,9,0,0,0,4.08,1.25l-.5.88a8.05,8.05,0,0,1-4.54-1.42.41.41,0,0,0-.66.42.4.4,0,0,0,.18.23h0c.11.08.27.19.48.31a9,9,0,0,0,4.08,1.25l-.71,1.27a12.63,12.63,0,0,1-8.68-5h0l.22-.39a9,9,0,0,0,2,1.72h0a.41.41,0,0,0,.42-.69Zm3.42-.14h0ZM71.68,87h0ZM52.16,98c0-.08,4.53-8.07,13.73-9l.45,0,1-1.52a12.22,12.22,0,0,0,5.39,3.11l-.88,1.8.12.31a21.65,21.65,0,0,1-.74,16.53c-.75,1.34-.62,1.21-1.61,3-13.23-.88-18-9.59-18.9-11.44Zm-2.39,4.34c1.78,3,7.17,10.28,19,11.34l-8,14.15a3.36,3.36,0,0,1-1.31.6c-1.69.43-4.83.31-10.18-2.71-8.11-4.57-7.66-8.56-7.57-9.06Zm2.47,40.94c-.14.18-3.62,4.3-12.1-.49-7.53-4.24-7.23-9.5-7.12-10.37L40.4,119c.66,2.07,2.62,5,8.1,8.12s9.05,3.34,11.07,2.92c-5.32,9.46-7,12.78-7.34,13.28Z"/></g></g></svg>