<svg xmlns="http://www.w3.org/2000/svg" viewBox="0 0 77.7 118.69"><defs><style>.cls-1{fill:#9a57a2;}.cls-2,.cls-3{fill:#292728;}.cls-3{opacity:0.3;}</style></defs><title>Asset 35</title><g id="Layer_2" data-name="Layer 2"><g id="Layer_1-2" data-name="Layer 1"><path class="cls-1" d="M16.52,103.83a9.15,9.15,0,0,0,1.76,4.43,15.72,15.72,0,0,0,4.52,4.09,25.9,25.9,0,0,0,7.09,3,35.74,35.74,0,0,0,17.94,0,25.9,25.9,0,0,0,7.09-3,15.78,15.78,0,0,0,4.52-4.09,9.12,9.12,0,0,0,1.75-4.43h0l2.73-27.76H13.78Z"/><path class="cls-1" d="M75.78,68.12,67.53,46.21a2.82,2.82,0,0,0-1-1.12,9.46,9.46,0,0,0-2.37-1.23A18.31,18.31,0,0,0,60.85,43,22.89,22.89,0,0,0,57,42.67H20.68a22.91,22.91,0,0,0-3.84.32,18.27,18.27,0,0,0-3.31.87,9.66,9.66,0,0,0-2.37,1.23,2.73,2.73,0,0,0-1,1.13L1.92,68.12a2.87,2.87,0,0,0-.06,2,4.44,4.44,0,0,0,1.6,2A10.7,10.7,0,0,0,7,73.82a19.36,19.36,0,0,0,5.23.67H65.44a19.38,19.38,0,0,0,5.22-.67,10.75,10.75,0,0,0,3.58-1.67,4.45,4.45,0,0,0,1.59-2v0A2.85,2.85,0,0,0,75.78,68.12ZM60.51,60.92a10.72,10.72,0,0,1-3.93,4,26.78,26.78,0,0,1-7.77,3.22,42.9,42.9,0,0,1-10.63,1.28,42.86,42.86,0,0,1-10.63-1.28,26.64,26.64,0,0,1-7.77-3.22,10.73,10.73,0,0,1-3.93-4A5,5,0,0,1,15.52,57a8.28,8.28,0,0,1,2.73-3.72,19.64,19.64,0,0,1,5.2-3,34.4,34.4,0,0,1,6.83-1.93,45.87,45.87,0,0,1,15.81,0,34.31,34.31,0,0,1,6.83,1.93,19.57,19.57,0,0,1,5.19,3,8.29,8.29,0,0,1,2.73,3.72,4.92,4.92,0,0,1-.31,3.84Z"/><path class="cls-2" d="M38.9,102.94a5.18,5.18,0,0,1-5.13-4.47H44a5.18,5.18,0,0,1-5.13,4.47Zm-6-12.68v0l0,0Zm10,3.6a1,1,0,1,1-1-1A1,1,0,0,1,43,93.86Zm-6.16,0a1,1,0,1,1-1-1A1,1,0,0,1,36.8,93.86Zm13.12-2.74a4.11,4.11,0,0,0-2.83-1.74,4.22,4.22,0,0,0-.88.09c1-.89,1.66-2.48,1.66-5a.52.52,0,0,0-1-.3,5.66,5.66,0,0,1-4.5,2.76,6.21,6.21,0,0,0-7,0,5.65,5.65,0,0,1-4.5-2.76.52.52,0,0,0-1,.3c0,2.59.73,4.2,1.74,5.08a4.15,4.15,0,0,0-1.15-.16,4.11,4.11,0,0,0-2.83,1.74.52.52,0,0,0,0,.61,4.11,4.11,0,0,0,2.83,1.74,3.58,3.58,0,0,0,2.17-.66v4.95a6.22,6.22,0,1,0,12.45,0V93a3.72,3.72,0,0,0,2,.52,4.11,4.11,0,0,0,2.83-1.74.52.52,0,0,0,0-.61Z"/><rect class="cls-2" x="36.67" y="99.41" width="1.05" height="1.54"/><rect class="cls-2" x="39.87" y="99.41" width="1.05" height="1.54"/><path class="cls-3" d="M62.17,76.07v-.8H13v5.33H57.69c-.22,6.76-1,23.52-3.36,33.78-.36,1.57,7.92-5.73,8.18-7.84s2.38-30.46,2.38-30.46Z"/><path class="cls-2" d="M77.28,66.64,69.36,45.59a5.7,5.7,0,0,0-2-2.49,12.29,12.29,0,0,0-3.07-1.61,20.79,20.79,0,0,0-3.76-1,25.41,25.41,0,0,0-4.22-.35H21.4a25.43,25.43,0,0,0-4.22.35,20.79,20.79,0,0,0-3.76,1,12.28,12.28,0,0,0-3.06,1.61,5.7,5.7,0,0,0-2,2.49L.42,66.64a5.87,5.87,0,0,0-.08,4.13,7.35,7.35,0,0,0,2.6,3.37,13.4,13.4,0,0,0,4.48,2.12,20.71,20.71,0,0,0,4.37.7l2.64,26.82a11.8,11.8,0,0,0,2.24,5.74,18.09,18.09,0,0,0,5.19,4.74,27.9,27.9,0,0,0,7.61,3.23,37.26,37.26,0,0,0,18.72,0,27.87,27.87,0,0,0,7.61-3.23A18.09,18.09,0,0,0,61,109.53a11.8,11.8,0,0,0,2.24-5.74L65.9,77a20.62,20.62,0,0,0,4.37-.7,13.43,13.43,0,0,0,4.48-2.12,7.3,7.3,0,0,0,2.61-3.37,5.83,5.83,0,0,0-.05-4.1ZM60.12,103.48h0a8.69,8.69,0,0,1-1.67,4.22,15,15,0,0,1-4.3,3.9,24.67,24.67,0,0,1-6.75,2.86,34,34,0,0,1-17.09,0,24.67,24.67,0,0,1-6.75-2.86,15,15,0,0,1-4.3-3.9,8.71,8.71,0,0,1-1.67-4.22L15,77H62.73ZM74.39,69.72v0a4.28,4.28,0,0,1-1.53,1.89,10.33,10.33,0,0,1-3.44,1.6,18.63,18.63,0,0,1-5,.64H13.3a18.6,18.6,0,0,1-5-.64,10.28,10.28,0,0,1-3.43-1.6,4.27,4.27,0,0,1-1.54-1.91,2.76,2.76,0,0,1,.06-2l7.93-21a2.62,2.62,0,0,1,.95-1.08,9.28,9.28,0,0,1,2.28-1.18,17.56,17.56,0,0,1,3.18-.83,22,22,0,0,1,3.69-.31H56.3A22,22,0,0,1,60,43.6a17.6,17.6,0,0,1,3.19.83,9.09,9.09,0,0,1,2.28,1.19,2.71,2.71,0,0,1,.95,1.08l7.93,21.05A2.74,2.74,0,0,1,74.39,69.72Z"/><path class="cls-2" d="M58.41,53.1A20.45,20.45,0,0,0,53,50a35.85,35.85,0,0,0-7.14-2,47.94,47.94,0,0,0-16.53,0,36,36,0,0,0-7.14,2,20.53,20.53,0,0,0-5.43,3.13A8.66,8.66,0,0,0,13.89,57a5.17,5.17,0,0,0,.35,4,11.21,11.21,0,0,0,4.11,4.19,27.85,27.85,0,0,0,8.12,3.37,44.79,44.79,0,0,0,11.11,1.34,44.84,44.84,0,0,0,11.11-1.34,28,28,0,0,0,8.12-3.37A11.2,11.2,0,0,0,60.91,61l0,0a5.14,5.14,0,0,0,.33-4A8.67,8.67,0,0,0,58.41,53.1Z"/><path class="cls-2" d="M47.21,56.91s17.14-31.2,17.51-31.83c3.47-5.8,8.65-11.54,11.6-17.08C78.8,3.32,73.91.72,73.91.72S69-1.88,66.54,2.81c-2.94,5.53-4.8,13-7.67,19.16-.31.66-14,28.47-16.2,32.66A7,7,0,0,0,47.21,56.91Z"/></g></g></svg>