<svg xmlns="http://www.w3.org/2000/svg" viewBox="0 0 127.01 92.53"><defs><style>.cls-1{fill:#83b2dd;}.cls-2,.cls-3{fill:#292728;}.cls-2{opacity:0.2;}</style></defs><title>Asset 36</title><g id="Layer_2" data-name="Layer 2"><g id="Layer_1-2" data-name="Layer 1"><polygon class="cls-1" points="22.32 85.05 3.52 56.51 4.19 22.26 11.91 2.78 76.39 4.46 113.99 3.45 119.7 12.86 123.73 35.35 120.71 62.55 103.58 85.05 71.35 89.75 39.45 88.74 22.32 85.05"/><path class="cls-2" d="M13.49,5.63,20.7,25S61.47,21.29,105,27.76c1,.15,8.2-22.37,8.2-22.37Z"/><path class="cls-2" d="M114.41,5.14s16,16.16,5.72,55.19c-.28,1.07-6.71,2.24-6.71,2.24s-.75-19.39-8.95-33.06C104.11,28.9,114.41,5.14,114.41,5.14Z"/><rect class="cls-1" x="82.78" y="22.79" width="12.49" height="6.21"/><path class="cls-3" d="M116.27.65h0a3.33,3.33,0,0,0-2.1-.65c-.26,0-27.1,1.13-50.67,1.13S13.12,0,12.84,0a3.29,3.29,0,0,0-2.07.63C-3,10.61-.77,53.69,2.32,61.11c0,0,0,0,0,0a4.26,4.26,0,0,0,.33.59L19.6,85.83a3.27,3.27,0,0,0,1.75,1.27,159.84,159.84,0,0,0,42.16,5.43,160.08,160.08,0,0,0,42.16-5.43,3.31,3.31,0,0,0,1.75-1.27l16.94-24.09a3.44,3.44,0,0,0,.33-.58,0,0,0,0,1,0,0C127.77,53.78,130,10.8,116.27.65Zm-5.09,6.09L103.52,27,102.19,7C105.94,6.93,109,6.82,111.18,6.74ZM67.84,66.11c-5.89.08-11.84,0-17.6-.25h-.08l-2-.09-.21,0-1.85-.1-.35,0L44,65.51l-.41,0-1.67-.12-.46,0-1.61-.13-.47,0L37.85,65l-.53-.05-1.48-.14-.56-.05-1.4-.16-.61-.07-1.34-.16-.61-.08L30,64.12,29.42,64c-.41-.05-.82-.12-1.23-.19l-.63-.09-1.15-.19-.65-.1c-.37-.07-.73-.13-1.09-.19L24,63.17,23,63l-.65-.13-1-.2-.65-.14-.91-.21-.66-.16-.85-.21c-.21-.05-.42-.1-.63-.17l-.81-.21-.14,0,7.91-24h42ZM63.5,7.74h1.89l1.13,26.95H25.37L15.9,6.74C23.86,7,44.7,7.74,63.5,7.74ZM13.59,60.49c-.21-.08-.42-.14-.62-.23L12.4,60l-.57-.23-.54-.24c-.17-.08-.35-.14-.5-.23l-.52-.26-.45-.23a2.91,2.91,0,0,1-.49-.25c-.13-.08-.26-.14-.38-.23l-.46-.3-.31-.21-.05,0c-1.1-3.22-4.6-41,5-50.53L22.47,35,14,60.63ZM66.51,85.88c-1,0-2,0-3,0a160.18,160.18,0,0,1-39.18-4.85L15,67.75a2.64,2.64,0,0,1,.33.09l1.8.46.62.16c.75.19,1.52.36,2.3.53l.09,0,2.35.47c.23,0,.45.08.69.13l2.14.38.41.07c.86.14,1.73.28,2.6.4l.65.09,2.18.29.63.08c.91.12,1.82.23,2.75.31l.49.05,2.38.24.74.07c1.89.17,3.8.33,5.73.46l.78.05,2.46.14.46,0,2.9.14.7,0,2.34.09.69,0,2.85.08c.17,0,.35,0,.52,0l2.38,0c.26,0,.52,0,.78,0,.94,0,1.88,0,2.8,0s1.86,0,2.8,0c.26,0,.52,0,.78,0l1.17,0ZM85.8,33.54a2.12,2.12,0,0,1-.89,2l-1.2.85.62,9.17a.75.75,0,0,1-.7.8l-1.45.1a.75.75,0,0,1-.8-.7l-.62-9.18-1.28-.66a2.12,2.12,0,0,1-1.15-1.82h0L78,26.12A.68.68,0,0,1,79.41,26l.53,5.16a.57.57,0,0,0,.52.52.55.55,0,0,0,.57-.56L80.86,26a.7.7,0,0,1,.5-.7.82.82,0,0,1,.27,0,.7.7,0,0,1,.59.63L82.74,31a.54.54,0,0,0,.21.38.55.55,0,0,0,.42.1.57.57,0,0,0,.45-.59l-.17-5.18A.68.68,0,0,1,85,25.65l.78,7.89ZM93,45.68l-1.45.1a.75.75,0,0,1-.8-.7l-.46-6.85-1.72.12h0a.54.54,0,0,1-.58-.51l-.34-5a9.32,9.32,0,0,1,3.84-8.17.56.56,0,0,1,.88.37l1.28,19.14C93.71,45.3,93.39,45.66,93,45.68Zm9.71,35.38-1.68.43,3.65-12c.74-.15,1.49-.29,2.22-.45l.08,0c.79-.17,1.56-.35,2.31-.53l.62-.16c.61-.16,1.22-.3,1.8-.47a2.63,2.63,0,0,0,.33-.09ZM105,48.83l5.27,12.69-.13,0-.63.17-.82.21-.68.17-.85.2-.71.16-.53.12Zm13.9,9-.05,0-.31.21-.46.3-.36.21c-.17.09-.33.2-.52.29l-.41.21-.56.28-.45.2c-.2.09-.4.19-.61.26l-.49.2-.65.26c-.17.07-.35.13-.53.19l-.55.2-8.55-20.6L104,33.73l10-26.39C123.47,17.1,120,54.66,118.87,57.83Z"/></g></g></svg>