<svg xmlns="http://www.w3.org/2000/svg" viewBox="0 0 62.33 171.98"><defs><style>.cls-1{fill:#fee445;}.cls-2,.cls-4{fill:#292728;}.cls-3{fill:#371b14;}.cls-4{opacity:0.2;}</style></defs><title>Asset 28</title><g id="Layer_2" data-name="Layer 2"><g id="Layer_1-2" data-name="Layer 1"><path class="cls-1" d="M32.43,13.34l-.09.1Z"/><path class="cls-1" d="M56.69,71.25c0-4.73-.13-4.33-.14-7.89A50.23,50.23,0,0,0,39.27,29.1l-.59-.5L38.4,24A28.36,28.36,0,0,1,24,23.8L23.76,28l-.86.6C5.35,40.9,5.35,62.15,5.36,62.36l.11,7.24C9.34,72.34,28.93,84.5,56.69,71.25Z"/><path class="cls-1" d="M39.52,97.37a6.7,6.7,0,0,0-2.05-4.55l-1,.92a5.38,5.38,0,0,1,1.69,3.6Z"/><path class="cls-1" d="M43.5,7.66c-8.09,4.15-19.62,1.93-24.86.56l0,11.45h0a31.4,31.4,0,0,0,24.87.22Z"/><path class="cls-1" d="M42.68,5.54C38,4,29.08,1.88,19.53,5.61,25.12,7,35.6,8.86,42.68,5.54Z"/><path class="cls-1" d="M32.42,17.82l-.09.1Z"/><path class="cls-1" d="M56.71,118.65c-3.59,3.15-10.91,6.7-25.7,6.68-14.59,0-21.93-3.79-25.61-7.23l.34,35.64c.76,1.86,6.14,12.85,26.18,12.87,22.59,0,24.94-12.24,25-12.76h0C57.08,152.46,56.7,143.82,56.71,118.65Z"/><path class="cls-1" d="M31,121.71c14.25,0,20.74-3.3,23.68-6.09a7.79,7.79,0,0,0,2-2.7l0-37.67C31.63,86.49,12.5,78,5.45,73.85L5.4,112C5.78,113.1,9.4,121.68,31,121.71Z"/><path class="cls-1" d="M35.2,109.49a.69.69,0,1,0-.95-.23A.7.7,0,0,0,35.2,109.49Z"/><path class="cls-2" d="M22.38,92.31a.26.26,0,0,1,.35.08.29.29,0,0,1-.06.35l-3.93,2.67a.31.31,0,0,0,.34.52l4.24-2.55a.26.26,0,0,1,.35.08.29.29,0,0,1-.06.35l-4.1,2.78a.31.31,0,0,0,.34.52l4.21-2.53a.26.26,0,0,1,.35.08.29.29,0,0,1-.06.35l-4.07,2.74a.31.31,0,0,0,.34.52l4.3-2.58a.26.26,0,0,1,.35.08.29.29,0,0,1-.06.35L21,99a.31.31,0,0,0,.34.52l4.27-2.56A.26.26,0,0,1,26,97a.29.29,0,0,1-.06.35l-4.15,2.79a.33.33,0,0,0-.1.42.3.3,0,0,0,.42.1l4.27-2.56a.26.26,0,0,1,.35.08.29.29,0,0,1-.06.35l-4.16,2.81a.33.33,0,0,0-.1.42.3.3,0,0,0,.42.1l4.15-2.49a.26.26,0,0,1,.35.08.29.29,0,0,1-.06.35l-4,2.75a.29.29,0,0,0-.1.39.3.3,0,0,0,.42.1l4.18-2.51a.26.26,0,0,1,.35.08A.29.29,0,0,1,28,101l-4.09,2.75a.32.32,0,0,0-.1.39.3.3,0,0,0,.42.1l4-2.39a.26.26,0,0,1,.35.08.29.29,0,0,1-.06.35l-4.12,2.84a.63.63,0,0,0,.82.25l3.32-1.69a1.54,1.54,0,0,1,2.16.6l2.93,5.46a1.48,1.48,0,1,0,2.58-1.45l-10.38-17a2,2,0,0,0-2.7-.68h0L18.19,94a.66.66,0,0,0-.16.87Zm12.1,16a.69.69,0,1,1-.23.95A.7.7,0,0,1,34.49,108.32Z"/><path class="cls-2" d="M36.76,101.28a4,4,0,0,0,4.08-3.87c.1-4-3.8-6.73-3.8-6.73s-4,2.56-4.15,6.52A4,4,0,0,0,36.76,101.28Zm.7-8.45a6.7,6.7,0,0,1,2.05,4.55l-1.32,0a5.38,5.38,0,0,0-1.69-3.6Z"/><path class="cls-3" d="M32.33,17.92h0l-.08.08Z"/><path class="cls-3" d="M32.34,13.44h0l-.08.08Z"/><path class="cls-4" d="M38.88,8.31s.7,11.81-.69,13.7c-1.59,2.15,5.13-1.41,5.13-1.41L43,6.76Z"/><path class="cls-4" d="M50.24,38.92,41,29.38,38.5,26.07l.69-.28c.3-.13-.14-2.88-.14-2.88l-16.15-.1-.07,2.54a20.08,20.08,0,0,0,13.54,1.39l.13,2.51c6.66,7.25,16.89,14.34,15.72,44.45,0,1,4.5-1.68,4.5-1.68l.8-13.51Z"/><path class="cls-4" d="M52.34,75.37s2.77,81.87-1.59,86.73,8-6.09,8-6.09L57.62,73Z"/><path class="cls-2" d="M61.9,63.33A54.38,54.38,0,0,0,43.89,26l-.09-2.67.63-.36,1-.47v-8c.28-.21.57-.42.85-.65a.94.94,0,0,0-.84-1.63V10c.28-.21.57-.43.85-.66a.94.94,0,0,0-.85-1.63V3.06l-.89-.49L43.65,2c-.51-.29-11-4.39-24.78-.1l-1.09.47-1,.46v8.25a.94.94,0,0,0-.62,1.71s.24.17.61.38v1.74a.94.94,0,0,0-.71,1.7s.28.19.71.43v5l.87.5.9.53-.31,2.27a44,44,0,0,0-3.47,3C0,42.33,0,61.57,0,62.38l.38,91.7v.15l0,.15.11.58,0,.13,0,.12c.23.68,5.89,16.73,31.35,16.76,11,0,19.41-2.6,24.87-7.77a17.85,17.85,0,0,0,5.45-9.47C62.55,152.87,62,103.58,61.9,63.33ZM42.68,5.54C35.6,8.86,25.12,7,19.53,5.61,29.08,1.88,38,4,42.68,5.54ZM25.58,17.6a19,19,0,0,1-6.13-1.32V14.45a21,21,0,0,0,6.14,1.21h0a.94.94,0,0,0,.07-1.88,19,19,0,0,1-6.23-1.36V8.66c4.9,1.28,15.66,3.35,23.21-.52V9.58a18.68,18.68,0,0,1-10.8,2.28.95.95,0,0,0-.86,1.6.94.94,0,0,0,.62.27h0c.32,0,.77.07,1.33.08a20.78,20.78,0,0,0,9.67-2.11v2.35a18.68,18.68,0,0,1-10.81,2.28.95.95,0,0,0-.86,1.6.94.94,0,0,0,.62.27h0c.32,0,.77.07,1.33.08a20.78,20.78,0,0,0,9.68-2.11v3.37a29.31,29.31,0,0,1-23.22-.21h0V18.3a21,21,0,0,0,6,1.18h0a.94.94,0,0,0,.07-1.88Zm6.76-4.16h0l-.08.07Zm0,4.48h0l-.08.07Zm-27,44.44c0-.21,0-21.46,17.55-33.8l.86-.6L24,23.8A28.36,28.36,0,0,0,38.4,24l.27,4.64.59.5A50.23,50.23,0,0,1,56.54,63.37c0,3.56.13,3.15.14,7.89C28.93,84.5,9.34,72.34,5.46,69.6Zm.09,11.49C12.5,78,31.63,86.49,56.68,75.25l0,37.67a7.79,7.79,0,0,1-2,2.7c-2.94,2.79-9.43,6.11-23.68,6.09C9.4,121.68,5.78,113.1,5.4,112Zm51.5,80c-.09.52-2.44,12.8-25,12.76-20,0-25.42-11-26.18-12.87L5.4,118.11c3.68,3.44,11,7.21,25.61,7.23,14.79,0,22.11-3.53,25.7-6.68,0,25.17.37,33.81.24,35.2Z"/></g></g></svg>