<svg xmlns="http://www.w3.org/2000/svg" viewBox="0 0 71.55 171.6"><defs><style>.cls-1{fill:#fac3c2;}.cls-2,.cls-3,.cls-4{fill:#292728;}.cls-2{opacity:0.2;}.cls-4{fill-rule:evenodd;}</style></defs><title>Asset 29</title><g id="Layer_2" data-name="Layer 2"><g id="Layer_1-2" data-name="Layer 1"><ellipse class="cls-1" cx="35.85" cy="5.27" rx="7.81" ry="1.77"/><path class="cls-1" d="M14.63,153.94c2.94,1.52,9.24,3.69,21.15,3.69s18.21-2.17,21.15-3.69V103l-2.22,0c-10.1,0-27.54-1.39-40.08-9.85Z"/><path class="cls-1" d="M43.75,30.1V9.37a31.49,31.49,0,0,1-8,1,31.39,31.39,0,0,1-8-1V30.1a2.94,2.94,0,0,1-1.09,2.3L6,49.41V157c1.47,1.83,8.42,8.63,29.82,8.63s28.3-6.74,29.82-8.63l0-107.61-20.78-17A2.94,2.94,0,0,1,43.75,30.1ZM58.42,98.2a3,3,0,0,1,3.21,3v52.79a3,3,0,0,1-1.31,2.46c-3.56,2.41-10.7,5.27-24.54,5.27h0c-13.85,0-21-2.86-24.54-5.25A3,3,0,0,1,9.92,154V88.77A3,3,0,0,1,15,86.66C25.55,97.2,45.51,98.34,53.6,98.34,56.55,98.34,58.41,98.2,58.42,98.2Z"/><path class="cls-2" d="M40.51,9V33.17s21.84,16.7,22,18.5c.38,5,1.81,106.85-.7,111s7.93-4.31,7.93-4.31L68.62,48.19,55.54,37.34,48.31,31.5l-1.11-25Z"/><path class="cls-3" d="M70.46,45.69l-20.77-17V5.24a3,3,0,0,0-1.36-2.5h0C46.3,1.13,41.45,0,35.78,0S25.29,1.12,23.27,2.72l0,0a3,3,0,0,0-1.36,2.5V28.69l-20.78,17A3,3,0,0,0,0,48V157.93a3.41,3.41,0,0,0,.32,1.37c.65,1.25,7.12,12.3,35.46,12.3s34.8-11.05,35.46-12.3a3.23,3.23,0,0,0,.32-1.37V48a3,3,0,0,0-1.09-2.3ZM35.85,3.5c4.31,0,7.81.79,7.81,1.77S40.16,7,35.85,7,28,6.25,28,5.27,31.54,3.5,35.85,3.5ZM65.6,157c-1.53,1.89-8.52,8.63-29.82,8.63S7.43,158.85,6,157V49.41l20.78-17a2.94,2.94,0,0,0,1.09-2.3V9.37a31.39,31.39,0,0,0,8,1,31.49,31.49,0,0,0,8-1V30.1a2.94,2.94,0,0,0,1.09,2.3l20.78,17Z"/><path class="cls-3" d="M25.18,120.79l1.4,9.4,9.19-1.37-1.4-9.4,1.37.8,1.75-3L33.75,115l-2.33.35a2.32,2.32,0,0,1-4.6.68l-2.33.35-2.95,3.17,2.55,2.37Z"/><path class="cls-4" d="M39.7,131.77a.39.39,0,0,1,.22.08,2.93,2.93,0,0,1,.13,4.63.39.39,0,1,1-.49-.61,2.14,2.14,0,0,0-.1-3.38.39.39,0,0,1,.24-.72Zm-1-1.66a4.18,4.18,0,1,0,3.81,4.46A4.16,4.16,0,0,0,38.7,130.11Z"/><path class="cls-4" d="M47.81,128.27h0a.39.39,0,0,1,.25.11,2.3,2.3,0,0,1,.82,1.65,2.48,2.48,0,0,1-.83,1.75.4.4,0,1,1-.56-.56,1.68,1.68,0,0,0,.6-1.19,1.49,1.49,0,0,0-.56-1.07.39.39,0,0,1,.25-.69Zm-.44-1.37a3.15,3.15,0,1,0,2.87,3.37A3.13,3.13,0,0,0,47.37,126.91Z"/><path class="cls-4" d="M41.37,124.06h0a.39.39,0,0,1,.24.12,1.73,1.73,0,0,1-.13,2.57.4.4,0,0,1-.48-.64,1,1,0,0,0,.05-1.38.39.39,0,0,1,.27-.68Zm-.59-1.43a2.75,2.75,0,1,0,2.51,2.94A2.75,2.75,0,0,0,40.79,122.62Z"/><path class="cls-3" d="M39.89,26.06a1.37,1.37,0,1,1,0-2.75c7.4,0,8.48-2.95,8.49-3a1.4,1.4,0,0,1,1.7-.9A1.35,1.35,0,0,1,51,21.06C50.9,21.57,49.47,26.06,39.89,26.06Z"/><path class="cls-3" d="M39.89,21.2a1.37,1.37,0,1,1,0-2.75c7.4,0,8.48-2.95,8.49-3a1.4,1.4,0,0,1,1.7-.9A1.35,1.35,0,0,1,51,16.21C50.9,16.72,49.47,21.2,39.89,21.2Z"/><path class="cls-3" d="M39.78,16.35a1.37,1.37,0,1,1,0-2.75c7.39,0,8.47-2.9,8.48-2.93a1.37,1.37,0,1,1,2.66.68C50.79,11.86,49.36,16.35,39.78,16.35Z"/><path class="cls-3" d="M30.18,18.75h0a15.87,15.87,0,0,1-9.41-2.92,1.37,1.37,0,0,1,1.75-2.12A13.46,13.46,0,0,0,30.21,16a1.37,1.37,0,0,1,0,2.75Z"/><path class="cls-3" d="M30.18,24.07h0a15.87,15.87,0,0,1-9.41-2.92A1.37,1.37,0,0,1,22.5,19a13.46,13.46,0,0,0,7.71,2.3,1.37,1.37,0,0,1,0,2.75Z"/><path class="cls-3" d="M11.76,86a3,3,0,0,0-1.84,2.75V154a3,3,0,0,0,1.31,2.46c3.56,2.39,10.7,5.25,24.54,5.25h0c13.85,0,21-2.86,24.54-5.27a3,3,0,0,0,1.31-2.46V101.16a3,3,0,0,0-3.21-3s-1.88.15-4.82.15c-8.09,0-28.06-1.14-38.6-11.68A3,3,0,0,0,11.76,86Zm42.95,17,2.22,0v51c-2.94,1.52-9.25,3.69-21.15,3.69s-18.21-2.17-21.15-3.69V93.13C27.17,101.59,44.6,103,54.71,103Z"/></g></g></svg>